<svg xmlns="http://www.w3.org/2000/svg" width="15.649" height="14.844" viewBox="0 0 15.649 14.844">
  <g id="组_4275" data-name="组 4275" transform="translate(0 0)">
    <path id="路径_924" data-name="路径 924" d="M400.459,356.062a.946.946,0,0,1-.945-.945v-4.788a.944.944,0,0,1,1.486-.772l3.826,2.4.022.016a.944.944,0,0,1,0,1.505l-.022.016-3.826,2.4A.939.939,0,0,1,400.459,356.062Zm.287-5.21v3.744l2.987-1.872Z" transform="translate(-394.057 -345.301)" fill="#999"/>
    <path id="路径_925" data-name="路径 925" d="M115.39,165.342H104.26a2.353,2.353,0,0,1-2.26-2.431v-9.982a2.353,2.353,0,0,1,2.26-2.431h11.13a2.353,2.353,0,0,1,2.26,2.431v9.982A2.353,2.353,0,0,1,115.39,165.342ZM104.26,151.73a1.16,1.16,0,0,0-1.115,1.2v9.982a1.16,1.16,0,0,0,1.115,1.2h11.13a1.16,1.16,0,0,0,1.115-1.2v-9.982a1.16,1.16,0,0,0-1.115-1.2Z" transform="translate(-102 -150.498)" fill="#999"/>
  </g>
</svg>
