<svg id="组_4271" data-name="组 4271" xmlns="http://www.w3.org/2000/svg" width="14.686" height="14.686" viewBox="0 0 14.686 14.686">
  <path id="路径_918" data-name="路径 918" d="M98.55,100.019H86.8a1.469,1.469,0,0,1-1.469-1.469V86.8A1.469,1.469,0,0,1,86.8,85.333H98.55a1.469,1.469,0,0,1,1.469,1.469V98.55A1.469,1.469,0,0,1,98.55,100.019ZM86.8,98.918H98.55a.367.367,0,0,0,.367-.367V94.9l-1.927-1.946a.914.914,0,0,0-1.3,0l-3.286,3.318a.918.918,0,0,1-1.308,0l-1.267-1.279a.913.913,0,0,0-1.3,0l-2.1,2.119v1.44A.367.367,0,0,0,86.8,98.918ZM98.55,86.435H86.8a.367.367,0,0,0-.367.367V95.54l1.32-1.332a2,2,0,0,1,2.856,0l1.142,1.153,3.161-3.192a2.008,2.008,0,0,1,2.856,0l1.148,1.158V86.8A.367.367,0,0,0,98.55,86.435Z" transform="translate(-85.333 -85.333)" fill="#999"/>
  <path id="路径_919" data-name="路径 919" d="M257.1,257.1m-1.1,0a1.1,1.1,0,1,0,1.1-1.1A1.1,1.1,0,0,0,256,257.1Z" transform="translate(-253.063 -253.063)" fill="#999"/>
</svg>
