<svg id="组_4277" data-name="组 4277" xmlns="http://www.w3.org/2000/svg" width="15.157" height="15.157" viewBox="0 0 15.157 15.157">
  <path id="路径_926" data-name="路径 926" d="M52.088,395.066l3.234-3.234.085-.085a.823.823,0,0,0,.062-.07,3.55,3.55,0,0,0-.146-4.864,3.62,3.62,0,0,0-.359-.314l-.815,1.052a2.034,2.034,0,0,1,.233.2,2.216,2.216,0,0,1,.016,3.117L51.173,394.1l0,0c-.018.02-.037.039-.057.059a2.217,2.217,0,1,1-3.135-3.135c.024-.024.049-.047.075-.07l0,0,1.561-1.561-.941-.941-1.6,1.6-.011.011-.02.019a3.548,3.548,0,0,0,5.018,5.018.245.245,0,0,0,.02-.021Z" transform="translate(-46 -380.978)" fill="#999"/>
  <path id="路径_927" data-name="路径 927" d="M343.076,55.531c-.065-.054-.184-.148-.3-.259a2.218,2.218,0,0,1,0-3.135c.024-.024.049-.047.075-.07l0,0,3.223-3.223a2.216,2.216,0,0,1,3.12,3.146l-1.616,1.618.941.941,1.6-1.6.085-.085a.83.83,0,0,0,.062-.07,3.549,3.549,0,0,0-5.01-5.01.5.5,0,0,0-.07.062l-3.32,3.32-.011.011-.02.02a3.549,3.549,0,0,0,0,5.018,3.743,3.743,0,0,0,.343.3Z" transform="translate(-336.006 -46.89)" fill="#999"/>
  <path id="路径_928" data-name="路径 928" d="M197.495,495.7a.665.665,0,1,0,.611-.715A.665.665,0,0,0,197.495,495.7Z" transform="translate(-195.029 -487.693)" fill="#999"/>
  <path id="路径_929" data-name="路径 929" d="M531.986,379.1a.665.665,0,1,0,.611-.715A.665.665,0,0,0,531.986,379.1Z" transform="translate(-524.082 -372.994)" fill="#999"/>
  <path id="路径_930" data-name="路径 930" d="M411.485,567.6a.665.665,0,1,0,.611-.715A.665.665,0,0,0,411.485,567.6Z" transform="translate(-405.54 -558.428)" fill="#999"/>
  <path id="路径_931" data-name="路径 931" d="M745.882,448.8a.665.665,0,1,0,.611-.715A.665.665,0,0,0,745.882,448.8Z" transform="translate(-734.499 -441.561)" fill="#999"/>
</svg>
