<svg id="组_4268" data-name="组 4268" xmlns="http://www.w3.org/2000/svg" width="14.686" height="14.686" viewBox="0 0 14.686 14.686">
  <path id="路径_915" data-name="路径 915" d="M241.056,259.367a.612.612,0,0,1,.059,1.221l-.059,0H232.9a.612.612,0,0,1-.059-1.221l.059,0Z" transform="translate(-229.634 -256.104)" fill="#999"/>
  <path id="路径_916" data-name="路径 916" d="M476.126,259.367a.612.612,0,0,1,.609.553l0,.059v6.935a.612.612,0,0,1-1.221.059l0-.059v-6.935A.612.612,0,0,1,476.126,259.367Z" transform="translate(-468.783 -256.104)" fill="#999"/>
  <path id="路径_917" data-name="路径 917" d="M87.216,64.772A1.632,1.632,0,0,1,88.848,66.4V77.826a1.632,1.632,0,0,1-1.632,1.632H75.794a1.632,1.632,0,0,1-1.632-1.632V66.4a1.632,1.632,0,0,1,1.632-1.632H87.216Zm0,1.224H75.794a.408.408,0,0,0-.405.361l0,.047V77.825a.408.408,0,0,0,.36.405l.048,0H87.216a.408.408,0,0,0,.405-.36l0-.048V66.4a.408.408,0,0,0-.36-.405l-.048,0Z" transform="translate(-74.162 -64.772)" fill="#999"/>
</svg>
